<?xml version="1.0" standalone="no"?>
<!DOCTYPE svg PUBLIC "-//W3C//DTD SVG 20010904//EN"
 "http://www.w3.org/TR/2001/REC-SVG-20010904/DTD/svg10.dtd">
<svg version="1.0" xmlns="http://www.w3.org/2000/svg"
 width="1080.000000pt" height="1080.000000pt" viewBox="0 0 1080.000000 1080.000000"
 preserveAspectRatio="xMidYMid meet">

<g transform="translate(0.000000,1080.000000) scale(0.100000,-0.100000)"
fill="#000000" stroke="none">
<path d="M0 5400 l0 -5400 5400 0 5400 0 0 5400 0 5400 -5400 0 -5400 0 0
-5400z m7896 -1121 c10 -17 -13 -36 -27 -22 -12 12 -4 33 11 33 5 0 12 -5 16
-11z m348 -55 c0 -173 -5 -245 -14 -239 -15 9 -13 308 2 303 7 -3 12 -26 12
-64z m1184 49 c2 -9 -5 -11 -27 -7 -27 6 -32 3 -41 -20 -15 -41 -13 -46 25
-46 44 0 46 -18 3 -22 l-31 -3 2 -80 c1 -44 -1 -88 -4 -98 -15 -37 -25 -1 -25
89 0 87 -1 94 -20 94 -11 0 -20 5 -20 10 0 6 9 10 20 10 15 0 20 7 20 27 0 38
28 65 64 61 16 -2 31 -9 34 -15z m142 2 c0 -11 -7 -14 -24 -9 -15 3 -29 -1
-40 -11 -26 -26 -16 -49 22 -53 42 -4 41 -20 0 -24 l-33 -3 -3 -97 c-4 -127
-22 -129 -22 -2 0 87 -2 96 -20 101 -11 3 -20 9 -20 14 0 5 9 9 20 9 15 0 20
7 20 27 0 14 7 35 17 45 20 23 83 25 83 3z m-1210 -50 c0 -22 4 -25 35 -25 19
0 35 -4 35 -10 0 -5 -16 -10 -35 -10 l-35 0 0 -69 c0 -91 5 -101 46 -101 38 0
46 -15 13 -25 -23 -8 -78 12 -81 29 -1 6 -2 45 -3 86 -2 60 -6 76 -19 78 -22
5 -20 19 4 25 12 3 20 14 20 26 0 12 5 21 10 21 6 0 10 -11 10 -25z m-1346
-31 c9 -3 16 -12 16 -20 0 -10 -6 -11 -26 -4 -37 14 -70 12 -88 -5 -24 -24 -8
-44 49 -61 62 -18 78 -32 73 -71 -4 -40 -64 -60 -126 -44 -26 7 -42 17 -39 24
3 7 11 10 18 8 8 -3 35 -6 60 -9 33 -3 49 1 59 13 19 22 -4 44 -61 56 -24 6
-49 15 -56 21 -21 17 -16 65 9 82 23 16 83 21 112 10z m109 -13 c-4 -15 8 -13
31 4 54 41 149 -2 162 -72 18 -97 -97 -170 -168 -106 -17 15 -18 13 -18 -40 0
-44 -3 -57 -15 -57 -13 0 -15 23 -15 146 0 112 3 145 13 141 6 -2 11 -10 10
-16z m407 -8 c19 -18 32 -39 33 -58 l2 -30 -75 -1 c-41 -1 -81 -2 -87 -3 -19
-2 -16 -24 7 -49 23 -24 77 -30 112 -11 24 13 35 5 19 -15 -33 -39 -133 -23
-167 28 -26 40 -14 114 23 143 40 33 94 31 133 -4z m248 11 c32 -22 17 -37
-19 -18 -61 31 -119 -6 -119 -75 0 -48 33 -81 81 -81 20 0 42 7 49 15 15 17
32 11 24 -10 -10 -24 -69 -38 -109 -25 -64 21 -91 86 -65 154 18 50 111 73
158 40z m112 -95 c0 -84 -3 -110 -12 -107 -9 3 -14 37 -16 111 -2 91 0 107 13
107 13 0 15 -18 15 -111z m221 92 c21 -17 24 -29 28 -105 3 -74 1 -86 -13 -86
-9 0 -16 4 -16 9 0 5 -17 3 -38 -6 -34 -13 -43 -13 -75 1 -33 13 -37 19 -37
50 0 43 23 58 94 60 44 2 51 5 54 23 2 15 -6 28 -23 39 -23 15 -33 16 -68 7
-49 -13 -70 -6 -36 13 36 20 103 17 130 -5z m416 -73 l41 -91 42 91 c38 82 60
112 60 82 0 -6 -26 -67 -57 -136 -62 -137 -86 -164 -130 -148 -42 15 -41 34 2
27 28 -4 39 -2 50 13 21 28 19 40 -30 149 -25 55 -45 101 -45 102 0 2 6 3 14
3 7 0 31 -41 53 -92z m451 76 c32 -22 17 -37 -19 -18 -61 31 -119 -6 -119 -75
0 -48 33 -81 81 -81 20 0 42 7 49 15 7 8 16 12 21 10 16 -11 -3 -34 -37 -45
-95 -32 -179 70 -130 159 27 48 108 67 154 35z m249 -19 c33 -33 35 -39 30
-81 -5 -52 -26 -79 -73 -94 -96 -32 -179 73 -127 160 20 35 47 48 97 49 31 1
45 -6 73 -34z m528 12 c18 -15 27 -33 28 -57 l2 -34 -84 -1 c-94 0 -108 -10
-70 -51 25 -26 75 -32 111 -13 24 13 35 5 19 -15 -19 -22 -76 -28 -115 -12
-76 32 -88 146 -18 189 39 24 95 22 127 -6z m250 1 c15 -14 28 -38 31 -59 l6
-37 -87 2 c-100 3 -118 -10 -70 -51 29 -25 73 -28 119 -8 31 13 14 -18 -18
-33 -87 -43 -185 55 -147 146 25 60 117 82 166 40z"/>
<path d="M7157 4160 c-22 -17 -27 -29 -27 -64 0 -54 30 -86 82 -86 45 0 78 37
78 85 0 70 -78 108 -133 65z"/>
<path d="M7416 4159 c-14 -11 -26 -28 -26 -37 0 -14 12 -17 75 -19 84 -2 94 8
50 52 -30 30 -64 32 -99 4z"/>
<path d="M8000 4072 c-19 -16 -21 -22 -11 -40 26 -48 121 -21 121 35 0 21 -5
23 -44 23 -27 0 -52 -7 -66 -18z"/>
<path d="M9115 4168 c-49 -26 -60 -86 -24 -132 16 -20 29 -26 59 -26 30 0 43
6 59 26 58 74 -15 176 -94 132z"/>
<path d="M9634 4155 c-38 -38 -27 -49 54 -52 65 -2 72 0 72 17 0 24 -46 60
-77 60 -13 0 -35 -11 -49 -25z"/>
<path d="M9885 4155 c-42 -41 -33 -50 50 -51 65 0 75 2 75 17 0 23 -47 59 -77
59 -13 0 -35 -11 -48 -25z"/>
</g>
</svg>
