<?xml version="1.0" encoding="UTF-8"?>
<svg version="1.1" xmlns="http://www.w3.org/2000/svg" width="690" height="690">
<path d="M0 0 C227.7 0 455.4 0 690 0 C690 227.7 690 455.4 690 690 C462.3 690 234.6 690 0 690 C0 462.3 0 234.6 0 0 Z " fill="#FEFEFE" transform="translate(0,0)"/>
<path d="M0 0 C0.65033203 0.16097168 1.30066406 0.32194336 1.97070312 0.48779297 C33.58688627 8.59430692 58.83367347 30.79413534 75.26220703 58.38574219 C84 73.37526151 84 73.37526151 84 79 C84.66 79 85.32 79 86 79 C86.22816406 78.45601563 86.45632813 77.91203125 86.69140625 77.3515625 C88.38023924 74.31670441 90.58540788 71.90044701 92.9375 69.375 C93.42766602 68.84793457 93.91783203 68.32086914 94.42285156 67.77783203 C110.93353127 50.23721549 129.98392184 37.25352883 154 33 C154.90790283 32.83016602 155.81580566 32.66033203 156.7512207 32.48535156 C175.21670035 29.72670021 195.34137737 31.15180302 213 37 C213.6496875 37.20818359 214.299375 37.41636719 214.96875 37.63085938 C234.37776554 43.9840223 251.42782039 57.61336814 261.3671875 75.52734375 C268.15528739 89.96423562 271.3607329 104.76099779 271.3125 120.6875 C271.32861328 121.76322266 271.34472656 122.83894531 271.36132812 123.94726562 C271.36530885 130.44779558 270.53698242 135.04030563 268 141 C267.4883705 143.38502035 267.02899268 145.7819072 266.625 148.1875 C264.88130029 157.31681783 262.89067245 166.41496222 256 173 C255.484375 174.134375 254.96875 175.26875 254.4375 176.4375 C243.5376817 199.21260672 216.33975161 214.2585627 193.625 222.375 C189.20607888 223.79327442 185.61423616 224.41947601 181 224 C180.49595192 221.89679937 179.99689492 219.79240209 179.5 217.6875 C179.08234375 215.92986328 179.08234375 215.92986328 178.65625 214.13671875 C178 211 178 211 178 208 C178.8971875 207.6596875 179.794375 207.319375 180.71875 206.96875 C203.29431493 198.26536018 225.66698953 187.04366713 239 166 C239.78697266 164.81083984 239.78697266 164.81083984 240.58984375 163.59765625 C249.62033706 149.42001153 252.39836057 134.65833955 252.375 118.0625 C252.37411377 116.92603027 252.37322754 115.78956055 252.37231445 114.61865234 C252.23153667 104.65558693 251.22127868 96.10291883 245 88 C244.62875 87.01 244.2575 86.02 243.875 85 C238.94110062 73.01398265 229.00846972 63.15033378 217.17578125 58.19140625 C189.72960129 47.89486887 162.58607883 46.75241629 135.390625 58.3828125 C112.85146667 69.13305622 96.89156294 89.56571483 86.66796875 111.87890625 C84.75955392 115.44992135 82.7613037 118.0417729 80 121 C77.375 121.6875 77.375 121.6875 75 121 C71.775855 116.85926516 71.30190996 112.5547055 70.6875 107.5 C66.58580727 78.69550486 55.17040074 54.37520191 32 36 C31.28328125 35.41347656 30.5665625 34.82695312 29.828125 34.22265625 C11.34859151 20.17183855 -11.96076684 13.68414956 -35 16 C-57.0044025 19.14488567 -76.69431285 32.72369136 -90.05859375 50.21875 C-107.51941377 75.23304347 -110.5260659 104.97743211 -105.5 134.75 C-97.66805874 176.14637641 -74.95207359 213.27070702 -48 245 C-47.19820313 244.49210938 -46.39640625 243.98421875 -45.5703125 243.4609375 C-23.40875833 229.85750483 1.88984682 227.11071166 27.46875 226.68359375 C28.55799271 226.66254074 29.64723541 226.64148773 30.76948547 226.61979675 C42.83426498 226.39499181 54.90012727 226.22945981 66.96603489 226.07878876 C71.5981206 226.02023876 76.22994508 225.95039268 80.86181641 225.87646484 C110.35686942 225.42289956 138.96141659 225.47319463 168 231 C169.94217857 231.32866682 171.88483952 231.65450498 173.828125 231.9765625 C189.96470106 234.80535248 204.16290957 240.30462644 215 253 C221.11615841 262.53013476 222.45662376 272.55651989 220.5390625 283.671875 C216.43532929 297.28661342 206.60735035 304.28551108 194.890625 311.0703125 C186.24938265 315.57698362 177.28855212 317.87529427 167.6875 319.25 C166.50687988 319.41910889 165.32625977 319.58821777 164.10986328 319.76245117 C153.53400398 321.10527756 143.02753618 321.34679621 132.375 321.3125 C131.59160248 321.31004272 130.80820496 321.30758545 130.00106812 321.30505371 C114.03059313 321.21539196 98.12449618 320.60883687 82.3125 318.25 C80.51897095 317.98449341 80.51897095 317.98449341 78.68920898 317.71362305 C35.37978355 311.09646553 -7.55121663 296.01616308 -45 273 C-45.05875981 277.12493872 -45.09384938 281.24976768 -45.125 285.375 C-45.14175781 286.53128906 -45.15851563 287.68757813 -45.17578125 288.87890625 C-45.22240693 297.13165077 -44.85438722 304.68436967 -41.56762695 312.33349609 C-40.02686174 315.93717339 -38.85851888 319.49640641 -37.73828125 323.25 C-34.87814561 332.61936011 -31.56535565 341.80678888 -28.1875 351 C-27.8682959 351.87163788 -27.5490918 352.74327576 -27.22021484 353.6413269 C-22.1864779 367.36443739 -16.9326475 380.99258779 -11.5 394.5625 C-11.17333344 395.37968506 -10.84666687 396.19687012 -10.51010132 397.03881836 C-6.2055811 407.78387517 -1.68395751 418.41544371 3 429 C3.71917443 430.65680372 4.43694021 432.31422078 5.15234375 433.97265625 C11.58583618 448.78452865 18.33072305 462.10378428 28.76611328 474.51953125 C29.82776774 475.79334855 30.85318725 477.09720949 31.87109375 478.40625 C37.11496976 484.94537595 45.79573736 491.88173427 54.25181961 493.40587139 C55.07374172 493.47727242 55.89566383 493.54867346 56.74249268 493.62223816 C57.68026928 493.70463651 58.61804588 493.78703485 59.58423996 493.87193012 C60.59703648 493.94923957 61.60983299 494.02654902 62.65332031 494.10620117 C63.71787067 494.19035121 64.78242104 494.27450125 65.8792305 494.36120129 C77.76628349 495.23037359 89.63360591 495.30916348 101.546875 495.30078125 C103.90521315 495.3046834 106.26355061 495.30902109 108.62188721 495.31376648 C113.51259669 495.32114648 118.40323384 495.32099447 123.29394531 495.31567383 C129.53393103 495.3098369 135.77362398 495.32695147 142.01356125 495.3500185 C146.86250511 495.36478815 151.71137851 495.36562403 156.56034088 495.36250877 C158.86144855 495.36301861 161.16256051 495.36819211 163.46364594 495.37832069 C184.41013306 496.29678712 184.41013306 496.29678712 202.33540344 487.12808228 C207.84178322 480.08852115 209.90269098 471.41642908 211.42578125 462.7890625 C211.84178639 460.57971998 212.25797358 458.37041173 212.67431641 456.16113281 C212.88815979 454.99940552 213.10200317 453.83767822 213.32232666 452.64074707 C214.38663244 446.9228474 215.52313626 441.21940615 216.65078354 435.51372528 C217.44122863 431.5023216 218.22008427 427.48865789 219.00025749 423.47524643 C219.66323568 420.0655132 220.32790023 416.65613052 220.99682617 413.24755859 C221.78807516 409.21548919 222.57198686 405.18202344 223.35546875 401.1484375 C223.71018501 399.34794449 223.71018501 399.34794449 224.07206726 397.51107788 C225.51263216 390.05312534 226.63757675 382.61295168 227.55781555 375.07681274 C228 372 228 372 229 369 C229.66 369 230.32 369 231 369 C231.02578125 368.2471875 231.0515625 367.494375 231.078125 366.71875 C232.15101727 346.62640377 239.48157598 326.53633267 247 308 C247.680625 306.205625 247.680625 306.205625 248.375 304.375 C256.37448437 287.7606863 268.81870637 274.97990054 286 268 C300.3548793 263.14352589 315.54348629 263.82216464 329.375 270.25 C338.90682541 275.51594289 345.23264744 282.5333695 349.03515625 292.79296875 C353.8635926 310.15288176 352.28982347 330.16728866 343.78515625 346.02734375 C329.71905297 369.45032974 308.3986258 382.33020729 282.4375 388.8125 C274.72442005 390.6531994 267.94561099 391.5297074 260 391 C260 385.06 260 379.12 260 373 C262.413125 372.9071875 262.413125 372.9071875 264.875 372.8125 C276.42212576 371.85366393 288.75997272 368.48639994 299 363 C299.93972656 362.52046875 300.87945313 362.0409375 301.84765625 361.546875 C315.9800078 353.90004003 326.05520199 342.31619485 331 327 C332.30949805 322.1435834 332.22044086 317.24549469 332.25 312.25 C332.2809375 310.96609375 332.2809375 310.96609375 332.3125 309.65625 C332.35044713 303.3949732 331.94012122 296.30434368 327.58300781 291.4074707 C318.81515068 283.95803749 308.45311781 283.99808211 297.40039062 284.67871094 C288.39001753 285.88473728 280.28254256 291.71745744 274 298 C273.34 298.99 272.68 299.98 272 301 C271.34 301 270.68 301 270 301 C269.82984375 301.58007812 269.6596875 302.16015625 269.484375 302.7578125 C268.29710421 306.58486621 267.22608983 309.67114206 264.9375 313 C263.14841173 315.77020119 262.64085329 317.082273 262.05078125 320.19140625 C261.13303961 324.60528535 259.77585068 328.70407599 258.25 332.9375 C254.54057858 343.65233383 252.15585888 354.6438706 249.72460938 365.70507812 C248.78157318 369.99322386 247.8197732 374.2769898 246.85180664 378.55957031 C246.41793208 380.48003529 245.98728652 382.40123342 245.56030273 384.32324219 C245.36895752 385.17563477 245.1776123 386.02802734 244.98046875 386.90625 C244.81442139 387.65197266 244.64837402 388.39769531 244.47729492 389.16601562 C244 391 244 391 243 393 C242.6994296 395.66644628 242.4351172 398.32863432 242.1875 401 C241.4504712 408.32017007 240.16283997 415.34767513 238.46606445 422.50097656 C237.10240646 428.3085102 236.19387967 434.0557922 235.4921875 439.984375 C234.97580627 443.14823461 234.01939839 445.9664677 233 449 C232.69965068 451.19839267 232.69965068 451.19839267 232.625 453.375 C232.11423598 459.43120196 230.5776327 465.18313553 229.0234375 471.03515625 C228.3798345 473.46117877 227.83526938 475.84052313 227.3515625 478.30859375 C224.97650829 490.16844236 217.43312197 499.36362395 207.5625 506.125 C200.52620194 510.66417072 194.87495053 513.1142476 186.45046997 513.14044189 C184.79405235 513.14900711 184.79405235 513.14900711 183.10417175 513.15774536 C181.90206558 513.15886322 180.69995941 513.15998108 179.46142578 513.16113281 C178.18756516 513.16609772 176.91370453 513.17106262 175.60124207 513.17617798 C172.11097338 513.18926833 168.6207239 513.19574147 165.13043451 513.20018864 C162.94344866 513.2031275 160.75646796 513.20723403 158.56948471 513.21169281 C151.70892777 513.22536484 144.84838273 513.23503042 137.98781312 513.2388947 C130.10318684 513.24336145 122.21873513 513.2608459 114.33416188 513.2898953 C108.21922402 513.3116314 102.1043348 513.32160545 95.98935878 513.32293582 C92.34756486 513.32397625 88.70593506 513.32971809 85.06418228 513.34775543 C61.89735604 513.45586725 43.50622023 513.34745908 25 498 C23.79537109 497.10087891 23.79537109 497.10087891 22.56640625 496.18359375 C19.55083026 493.6178297 17.15731007 490.7444961 14.75 487.625 C14.03493286 486.70352173 14.03493286 486.70352173 13.30541992 485.76342773 C1.01723938 469.70056705 -7.69374902 452.43323424 -14.97021484 433.63134766 C-16.67565733 429.27353375 -18.46597414 424.9510935 -20.25 420.625 C-24.54788751 410.16696606 -28.74526522 399.66952768 -32.92675781 389.16455078 C-35.21986443 383.41200295 -37.55891031 377.69141732 -40 372 C-41.50262502 368.25913544 -42.97115663 364.50520989 -44.4375 360.75 C-44.81970703 359.77675781 -45.20191406 358.80351562 -45.59570312 357.80078125 C-49.30327671 348.32097511 -52.89067429 338.83635865 -55.75 329.0625 C-56.08064453 327.97098633 -56.08064453 327.97098633 -56.41796875 326.85742188 C-57.4377133 323.39599084 -58 320.64026259 -58 317 C-58.66 317 -59.32 317 -60 317 C-64.71940286 299.47078936 -67.07544742 279.27378839 -60.1640625 261.8984375 C-59.78838245 259.79934495 -59.78838245 259.79934495 -61.51953125 257.625 C-62.27621094 256.75875 -63.03289062 255.8925 -63.8125 255 C-64.64265625 254.02933594 -65.4728125 253.05867188 -66.328125 252.05859375 C-67.21849501 251.03883981 -68.10912067 250.01930902 -69 249 C-75.60338652 241.31292889 -81.5424052 233.5386647 -87 225 C-87.83068762 223.73349271 -88.66277833 222.46790484 -89.49609375 221.203125 C-90.33116204 219.92736657 -91.1658051 218.65132969 -92 217.375 C-92.39840088 216.77059082 -92.79680176 216.16618164 -93.20727539 215.54345703 C-96 211.22883014 -96 211.22883014 -96 209 C-96.66 209 -97.32 209 -98 209 C-98.391875 208.030625 -98.78375 207.06125 -99.1875 206.0625 C-100.79732861 202.2832357 -102.75860006 198.7624161 -104.81640625 195.2109375 C-106.07582654 192.85835703 -107.02207466 190.48240827 -108 188 C-108.31114746 187.24170898 -108.62229492 186.48341797 -108.94287109 185.70214844 C-111.42129141 179.6257761 -113.58544798 173.48597542 -115.625 167.25 C-115.9240625 166.34378906 -116.223125 165.43757812 -116.53125 164.50390625 C-117.10716119 162.75833471 -117.67990343 161.01171352 -118.24902344 159.26391602 C-118.83715541 157.49091608 -119.46899447 155.73240305 -120.1171875 153.98046875 C-121.37462508 149.73522593 -121.91064335 145.44381621 -122.5 141.0625 C-122.73495337 139.32358689 -122.97445794 137.58528201 -123.21875 135.84765625 C-123.32123047 135.08461182 -123.42371094 134.32156738 -123.52929688 133.53540039 C-123.97842733 130.84150254 -123.97842733 130.84150254 -125.02783203 127.68310547 C-126.05319723 123.79845973 -126.32287799 120.20837763 -126.3359375 116.22265625 C-126.3425943 115.49364609 -126.3492511 114.76463593 -126.35610962 114.01353455 C-126.36618281 112.47478735 -126.3709283 110.93599693 -126.37060547 109.3972168 C-126.3749307 107.09931547 -126.4111691 104.80341573 -126.44921875 102.50585938 C-126.54902437 89.48472838 -124.30832011 77.96585726 -119 66 C-118.45601407 64.44540908 -117.93117358 62.88379247 -117.4375 61.3125 C-116.51606168 58.38159731 -115.43112904 55.72098782 -114 53 C-113.34 53 -112.68 53 -112 53 C-111.90976563 52.29617187 -111.81953125 51.59234375 -111.7265625 50.8671875 C-107.88781347 35.71857574 -89.88925781 21.10214438 -77.359375 12.98828125 C-65.32900809 5.8679827 -53.62072499 1.20892712 -40 -2 C-39.1853125 -2.20238281 -38.370625 -2.40476562 -37.53125 -2.61328125 C-25.05564584 -4.51927633 -12.14896139 -3.06770414 0 0 Z " fill="#B1A489" transform="translate(232,105)"/>
<path d="M0 0 C0.72541992 0.14695312 1.45083984 0.29390625 2.19824219 0.4453125 C14.34452712 2.98994033 25.44091804 6.56637378 33.875 16.125 C35.97576424 21.49361971 35.96269397 27.01890419 34.19140625 32.50390625 C29.57392715 41.94657112 20.77540151 45.48594492 11.328125 48.90234375 C-5.20987235 54.35677715 -21.68979652 54.27202956 -38.9375 54.3125 C-40.00391724 54.31511841 -41.07033447 54.31773682 -42.16906738 54.32043457 C-59.48139886 54.32498105 -75.965802 53.25365947 -93 50 C-94.82935071 49.67274984 -96.65877453 49.34590806 -98.48828125 49.01953125 C-103.35169674 48.12235617 -108.17539347 47.08445302 -113 46 C-114.18601807 45.74379883 -114.18601807 45.74379883 -115.39599609 45.48242188 C-145.72795676 38.87074977 -174.02979913 25.09152612 -201 10 C-200 7 -200 7 -198.12890625 5.75390625 C-192.292827 3.04461527 -186.50673066 1.21490542 -180.25 -0.1875 C-179.56107666 -0.34210693 -178.87215332 -0.49671387 -178.16235352 -0.65600586 C-163.75367279 -3.67276706 -149.53841543 -4.39513439 -134.875 -4.625 C-132.82511388 -4.6618623 -130.77522781 -4.69872761 -128.7253418 -4.7355957 C-31.15493949 -6.38480362 -31.15493949 -6.38480362 0 0 Z " fill="#FDFDFC" transform="translate(400,354)"/>
<path d="M0 0 C-1 3 -1 3 -3.125 4.1875 C-7.21056755 6.76318389 -9.94859606 10.29786438 -13 14 C-13.66 13.67 -14.32 13.34 -15 13 C-4.09677419 0 -4.09677419 0 0 0 Z " fill="#BDB5A3" transform="translate(505,381)"/>
<path d="M0 0 C0.33 0.99 0.66 1.98 1 3 C-0.40580276 4.65512248 -1.82506266 6.29882206 -3.25 7.9375 C-4.03890625 8.85402344 -4.8278125 9.77054687 -5.640625 10.71484375 C-7.91251033 12.91526249 -8.92319022 13.66832555 -12 14 C-8 9.33333333 -4 4.66666667 0 0 Z " fill="#B9B19D" transform="translate(555,448)"/>
<path d="M0 0 C0.66 0.66 1.32 1.32 2 2 C-2.455 7.94 -2.455 7.94 -7 14 C-7.66 13.67 -8.32 13.34 -9 13 C-8.51789063 12.31292969 -8.03578125 11.62585938 -7.5390625 10.91796875 C-6.90742188 10.01691406 -6.27578125 9.11585938 -5.625 8.1875 C-4.99851562 7.29417969 -4.37203125 6.40085937 -3.7265625 5.48046875 C-2.46449761 3.66732122 -1.22541192 1.83811789 0 0 Z " fill="#BEB5A2" transform="translate(473,268)"/>
<path d="M0 0 C1.12758089 3.38274266 0.81750262 4.76778223 0.0625 8.1875 C-0.13214844 9.08855469 -0.32679688 9.98960937 -0.52734375 10.91796875 C-0.68332031 11.60503906 -0.83929688 12.29210937 -1 13 C-1.33 13 -1.66 13 -2 13 C-2.05391993 11.20866022 -2.09275571 9.41686101 -2.125 7.625 C-2.14820313 6.62726562 -2.17140625 5.62953125 -2.1953125 4.6015625 C-2 2 -2 2 0 0 Z " fill="#C4BCAB" transform="translate(471,517)"/>
<path d="M0 0 C0.99 0.33 1.98 0.66 3 1 C1.35 2.65 -0.3 4.3 -2 6 C-2.66 5.67 -3.32 5.34 -4 5 C-2.68 3.35 -1.36 1.7 0 0 Z " fill="#B8AF9C" transform="translate(494,389)"/>
</svg>
